<svg xmlns="http://www.w3.org/2000/svg" xmlns:xlink="http://www.w3.org/1999/xlink" width="67" height="67" viewBox="0 0 67 67">
  <defs>
    <filter id="Path_3919" x="0" y="0" width="67" height="67" filterUnits="userSpaceOnUse">
      <feOffset dy="6" input="SourceAlpha"/>
      <feGaussianBlur stdDeviation="3" result="blur"/>
      <feFlood flood-opacity="0.161"/>
      <feComposite operator="in" in2="blur"/>
      <feComposite in="SourceGraphic"/>
    </filter>
  </defs>
  <g id="返回" transform="translate(9 3)">
    <g transform="matrix(1, 0, 0, 1, -9, -3)" filter="url(#Path_3919)">
      <g id="Path_3919-2" data-name="Path 3919" transform="translate(9 3)" fill="#171717">
        <path d="M 24.5 48.5 C 21.25979995727539 48.5 18.11679077148438 47.86550903320313 15.15826988220215 46.61417007446289 C 12.30043029785156 45.40539932250977 9.733719825744629 43.67483901977539 7.529439926147461 41.47055816650391 C 5.325160026550293 39.26628112792969 3.594599962234497 36.69956970214844 2.385829925537109 33.84172821044922 C 1.134490013122559 30.88320922851563 0.5 27.74020004272461 0.5 24.5 C 0.5 21.25979995727539 1.134490013122559 18.11679077148438 2.385829925537109 15.15826988220215 C 3.594599962234497 12.30043029785156 5.325160026550293 9.733719825744629 7.529439926147461 7.529439926147461 C 9.733719825744629 5.325160026550293 12.30043029785156 3.594599962234497 15.15826988220215 2.385829925537109 C 18.11679077148438 1.134490013122559 21.25979995727539 0.5 24.5 0.5 C 27.74020004272461 0.5 30.88320922851563 1.134490013122559 33.84172821044922 2.385829925537109 C 36.69956970214844 3.594599962234497 39.26628112792969 5.325160026550293 41.47055816650391 7.529439926147461 C 43.67483901977539 9.733719825744629 45.40539932250977 12.30043029785156 46.61417007446289 15.15826988220215 C 47.86550903320313 18.11679077148438 48.5 21.25979995727539 48.5 24.5 C 48.5 27.74020004272461 47.86550903320313 30.88320922851563 46.61417007446289 33.84172821044922 C 45.40539932250977 36.69956970214844 43.67483901977539 39.26628112792969 41.47055816650391 41.47055816650391 C 39.26628112792969 43.67483901977539 36.69956970214844 45.40539932250977 33.84172821044922 46.61417007446289 C 30.88320922851563 47.86550903320313 27.74020004272461 48.5 24.5 48.5 Z" stroke="none"/>
        <path d="M 24.5 1 C 21.32707977294922 1 18.24959945678711 1.621200561523438 15.3530387878418 2.846340179443359 C 12.5547981262207 4.029888153076172 10.04151153564453 5.724468231201172 7.882991790771484 7.882991790771484 C 5.724468231201172 10.04151153564453 4.029888153076172 12.5547981262207 2.846340179443359 15.3530387878418 C 1.621200561523438 18.24959945678711 1 21.32707977294922 1 24.5 C 1 27.67292022705078 1.621200561523438 30.75040054321289 2.846340179443359 33.64694976806641 C 4.029888153076172 36.44519805908203 5.724468231201172 38.95848083496094 7.882991790771484 41.11701202392578 C 10.04151153564453 43.27552795410156 12.5547981262207 44.97010803222656 15.3530387878418 46.15365982055664 C 18.24959945678711 47.37879943847656 21.32707977294922 48 24.5 48 C 27.67292022705078 48 30.75040054321289 47.37879943847656 33.64694976806641 46.15365982055664 C 36.4451904296875 44.97010803222656 38.95848083496094 43.27552795410156 41.11701202392578 41.11701202392578 C 43.27552795410156 38.95848083496094 44.97010803222656 36.4451904296875 46.15365982055664 33.64694976806641 C 47.37879943847656 30.75040054321289 48 27.67292022705078 48 24.5 C 48 21.32707977294922 47.37879943847656 18.24959945678711 46.15365982055664 15.3530387878418 C 44.97010803222656 12.5547981262207 43.27552795410156 10.04151153564453 41.11701202392578 7.882991790771484 C 38.95848083496094 5.724468231201172 36.44519805908203 4.029888153076172 33.64694976806641 2.846340179443359 C 30.75040054321289 1.621200561523438 27.67292022705078 1 24.5 1 M 24.5 0 C 38.03096771240234 0 49 10.96902084350586 49 24.5 C 49 38.03096771240234 38.03096771240234 49 24.5 49 C 10.96902084350586 49 0 38.03096771240234 0 24.5 C 0 10.96902084350586 10.96902084350586 0 24.5 0 Z" stroke="none" fill="#afafaf"/>
      </g>
    </g>
    <g id="Group_1625" data-name="Group 1625" transform="translate(31 18) rotate(90)">
      <path id="Path_1642" data-name="Path 1642" d="M0,0,6.942,6.6,12.868,0" transform="translate(0 6.518)" fill="none" stroke="#ff2300" stroke-linecap="round" stroke-linejoin="round" stroke-width="1.5"/>
      <path id="Path_1643" data-name="Path 1643" d="M0,12.7V0" transform="translate(6.773 0)" fill="none" stroke="#ff2300" stroke-linecap="round" stroke-width="1.5"/>
    </g>
  </g>
</svg>
