<svg xmlns="http://www.w3.org/2000/svg" width="89" height="17.422" viewBox="0 0 89 17.422">
  <g id="聯合報標準字" transform="translate(0 0)">
    <path id="Path_3" data-name="Path 3" d="M403.11,21.142a4.388,4.388,0,0,1-1.267.065.346.346,0,0,1-.309-.39,15.834,15.834,0,0,1,.422-2.4c.162-.341.26-.357.471-.406,0,0,.227.016.65.016a8.651,8.651,0,0,0,1.186-.179c.39-.065.276.406.276.406a13.643,13.643,0,0,0-1.072,1.543,5.587,5.587,0,0,0-.26,1.235c-.081.162.114.081-.1.114m-7.944.211a4.146,4.146,0,0,1-1.543.081c-.5,0-.959.13-1.462.179a.524.524,0,0,1-.6-.406,1.328,1.328,0,0,1,.049-.91.833.833,0,0,1,.861-.487s2.047-.016,2.486.016c.439.049.439.244.471.6.016.374,0,.747-.26.926m18.846,4.094a19.688,19.688,0,0,1-2.226.26,8.569,8.569,0,0,1-3.46-.5,19.649,19.649,0,0,1-4.728-1.9,1.368,1.368,0,0,1-.325-.829c0-.325.439-.276.65-.309a24.239,24.239,0,0,1,2.453-.032,2.052,2.052,0,0,0,1.673-.162c.8-.439,1.056-1.137.666-1.446s-.6-.715-1.722-.325a10.123,10.123,0,0,1-2.469.845s-.634.049-.585-.422c.033-.471.552-.715,1.17-1.024.617-.325,2.128-1.43,2.908-1.82.8-.39.715-.877.065-1.576-.569-.6-.861-.244-1.478-.276-.6-.049-1.592.227-2.713.162s-2.469-.13-2.469-.13c-.487-.049-.975-.341-1.4.211a2.24,2.24,0,0,0-.276,1.673c0,.13.016.325.032.585v-.114c-.065.26-.114.244-.211.309a.432.432,0,0,0-.244-.179,4.042,4.042,0,0,0-1.673-.195c-.439.032-1.137.065-1.673.081-.552.016-.926.032-1.056-.26a1.058,1.058,0,0,1,.1-.926c.146-.195.958-.146,1.462-.1a1.9,1.9,0,0,0,1.495-.422c.26-.341-.065-1.056-.52-1.332-.471-.292-.52-.13-1.007-.049a4.745,4.745,0,0,1-1.235.114c-.227-.032-.244-.26-.244-.585s.195-1.088-.195-1.495c-.406-.406-.422-.5-.877-.487l-.195.049a.617.617,0,0,0-.52.357c-.179.292-.276.357-.276.617a3.071,3.071,0,0,0,.1.845.708.708,0,0,1-.114.747c-.227.227-.39.179-.747.114a5.633,5.633,0,0,0-1.511-.065c-.471.065-.78-.032-.926.065a3.252,3.252,0,0,1-.682.357c-.325.114-.471.244-.471.5,0,0-.065.1.049.227s.162.016.211.244.1.162.211.276a.732.732,0,0,0,.569.292,10.892,10.892,0,0,0,1.8-.065,5.489,5.489,0,0,1,1.089-.244c.325.016.8.065.7.585s-.1.731-.5.78-1.153.016-1.332.081a.814.814,0,0,1-.357.114c-.227.016-1.17.065-1.511.065a4.166,4.166,0,0,1-1.3-.244,1.483,1.483,0,0,0-1.137-.179,7.328,7.328,0,0,1-.845.179c-.325.081-.91.406-.975.78a1.841,1.841,0,0,0,.179.959,1.2,1.2,0,0,0,1.267.439c.552-.195,1.641-.439,2.226-.6s.715-.26,1.17-.049a.971.971,0,0,1,.682.861c.065.422-.1.926-.91.926a5.345,5.345,0,0,0-1.933.13c-.682.227-1.056.422-1.024.731.016.309.244.357.52.439a11.163,11.163,0,0,0,2.989-.13,7.966,7.966,0,0,1,1.852-.162c.39,0,.829-.016.975.325a.631.631,0,0,1-.374.894,6.055,6.055,0,0,1-1.755.1,26.789,26.789,0,0,0-2.729.146,3.338,3.338,0,0,0-1.9.569.472.472,0,0,0,0,.8s.309.244.357.406a2.121,2.121,0,0,0,1.592.1A4.2,4.2,0,0,1,389.5,25.8c.325-.032,1.641-.26,2.388-.276s1.1.049,1.072.6c-.049.569-.487,1.056-1.576,1.17s-1.4-.016-2.047.065a6.392,6.392,0,0,0-2.112.764.861.861,0,0,0-.309,1.251c.341.7.942.975,2.079.764a13.04,13.04,0,0,0,4.484-1.657,3.989,3.989,0,0,0,1.235-2.729s0-.439.6-.422,2.161.114,2.551.162c.39.032.471-.081.666-.487s.179-.812-.682-.91a5.417,5.417,0,0,0-1.511,0,3.165,3.165,0,0,1-1.024-.065c-.341-.065-.569-.244-.585-.569s.049-.6.325-.634c.276-.016,1.511-.1,1.966-.081.439.016.8.162,1.072.162a.732.732,0,0,0,.569-.439,1.3,1.3,0,0,0,0-.747c-.049-.146-.26-.162-.5-.162a4.14,4.14,0,0,1-1.007,0c-.39-.081-.65-.146-.65-.682,0-.552.065-1.088.341-1.17s1.316-.016,1.592-.081a2.4,2.4,0,0,0,.959-.455c.179-.032.195.114.309.341a2.41,2.41,0,0,1,.13.91h0c0,.374-.016.747-.033,1.072-.081,1.267-.049,3.672-.162,4.175a7.826,7.826,0,0,0-.276,2.08c.033.942.325,1.3.812,1.348s.861-.325.991-1.137a12.892,12.892,0,0,0,.13-2.664c-.049-.6.049-1.316.357-1.348.292-.032.569-.162.861.244a19.377,19.377,0,0,0,5.1,3.834,4.431,4.431,0,0,0,2.128.666,5.1,5.1,0,0,0,1.348-.325,3.8,3.8,0,0,0,2.339-1.348,2.005,2.005,0,0,0,.942-1.153c0,.016.374-.536-.357-.422" transform="translate(-325.464 -12.79)" fill="#ff2300"/>
    <path id="Path_4" data-name="Path 4" d="M207.622,35.361a2.277,2.277,0,0,0-.032,1.137c.114.406.7.341,2.4.13,1.69-.211,5.686-.276,6.58-.244a7.54,7.54,0,0,0,2.112.114c.634-.179.536-.731.536-1.024s.114-.439-.292-.666a16.707,16.707,0,0,0-3.59-.114c-.812,0-4.955.357-5.719.439a13.648,13.648,0,0,0-1.755.081.3.3,0,0,0-.244.146m1.495-3.964a5.345,5.345,0,0,0-1.072,1.235c-.049.114-.5.374-.422.7s.617.13.975.13a8.585,8.585,0,0,0,2.161.13c1.543-.081,3.688-.1,4.614-.276a6.791,6.791,0,0,1,2.015-.13,2.732,2.732,0,0,1,1.186.309,1.967,1.967,0,0,0,1.3-.195c.195-.162,0-.52,0-.52-.357-.292-2.453-1.56-2.859-1.787-.406-.211-.6-.276-.764-.162-.081.065.1.325.1.325.211.292.13.942-.244,1.024a7.455,7.455,0,0,1-1.625.081c-.487-.032-3.233.081-3.639.162s-.569.1-.812-.114-.081-.6-.211-.942c-.081-.1-.374-.13-.7.032m1.283-.975c-.309.569,1.089.374,1.089.374.91-.13,2.827-.032,3.4-.049.569-.032.569-.081.569-.276a.642.642,0,0,0-.211-.5,11.033,11.033,0,0,0-1.137-.682,1.778,1.778,0,0,0-1.381-.325,2.83,2.83,0,0,0-1.868,1.056Zm1.738-4.533c.195-.569.91-1.3,1.673.13a8.034,8.034,0,0,0,4.013,3.915c2.161.942,3.558,1.673,5.118,1.56a21.052,21.052,0,0,0,2.5-.195c.422-.114.861-.374,1.056-.422s.569-.162.7.081a.813.813,0,0,1,.033.731,13.071,13.071,0,0,1-.764,1.186c-.195.357-1.137,1.56-2.047,1.478s-1.673-.374-2.031-.406a.494.494,0,0,0-.585.569,16.97,16.97,0,0,1,.292,2.047c.032.731.032,2.112-1.917,1.917s-2.291-.292-3.509-.374a41.964,41.964,0,0,0-5.686.114c-2.583.195-3.964.292-4.484.357-.52.049-1.511.114-1.673-.91a12.357,12.357,0,0,1,.032-1.673,5.3,5.3,0,0,1,.439-1.3s0-.455-.276-.374-1.755.666-2.534.829-2.453.455-3.054-.341a4.04,4.04,0,0,1-1.023-3.233s.032-.991.65-.65a7.209,7.209,0,0,0,2.453,1.4,5.908,5.908,0,0,0,5.524-1.072,18.049,18.049,0,0,0,4.825-4.744Z" transform="translate(-168.984 -23.174)" fill="#ff2300"/>
    <path id="Path_5" data-name="Path 5" d="M36.351,40.329c-.1.406-.309,1.218.5,1.495s1.3-.016,1.446-.747a4.731,4.731,0,0,0-.065-2.323,6.028,6.028,0,0,0-.406-.715c-.065-.162-.146-.39-.439-.146s-.731.6-.812.926c-.065.341-.114,1.1-.227,1.511m5.361-5.053c0,.26-.26.26-.487.244s-1.3.049-1.592.049c-.309,0-.357-.227-.341-.406a2.585,2.585,0,0,1,.211-.991.893.893,0,0,1,.65-.406s.617,0,.861-.016.309.179.422.325a3.274,3.274,0,0,1,.276,1.2m-.146-3.412c.032.244-.13.341-.341.341a11.279,11.279,0,0,1-1.8-.016c-.455-.1-.325-.552-.276-.812a1.207,1.207,0,0,1,.357-.764,1.6,1.6,0,0,1,.8-.195l.715.081c.146.016.374.26.439.406a6.76,6.76,0,0,1,.114.959m-3.477,2.161a6,6,0,0,1-.585.52,4.107,4.107,0,0,0-1.1,1.072c-.13.276-.292.552-.487.5-.195-.032-.374-.26-.52-.829-.162-.569-.845-1.007-.959-1.218-.1-.195,0-.309.227-.357a7.368,7.368,0,0,1,1.088-.244s.487.016.975.016,1.072-.081,1.316-.032c.244.032.211.439.049.569m-4.224,1.267c-.081.325-.52.39-.812.406-.276.016-.552.081-1.17.114-.617.049-.7-.341-.731-.471a1.032,1.032,0,0,1,.1-.747.977.977,0,0,1,.812-.569h.325a3.96,3.96,0,0,1,1.072.195.818.818,0,0,1,.406,1.072m-.341-3.087c-.049.39-.049.569-.439.6a9.63,9.63,0,0,0-1.3.1c-.487.1-.812.081-.926-.244a1.662,1.662,0,0,1,.065-1.137,2.229,2.229,0,0,1,.552-.406,1.241,1.241,0,0,1,1.316,0c.487.374.78.7.731,1.088m-3.509,2.453a.735.735,0,0,1-.357.65,7.134,7.134,0,0,0-1.007.666c-.276.179-.764.1-.845-.179a4.2,4.2,0,0,1,0-1.495.463.463,0,0,1,.634-.244s.26.065.439.114c.179.065.39-.032.764-.032.374-.016.341.374.374.52M25.45,37.274c-.211.406-.764.227-1.024.179-.244-.049-1.235.016-1.673.016s-1.316.162-1.673.179a1.745,1.745,0,0,1-1.04-.162,1.16,1.16,0,0,1-.1-.991c.1-.26.422-.179.845-.195,0,0,1.251-.016,1.868-.016.6,0,1.706-.016,1.706-.016a1.333,1.333,0,0,1,.845-.016.744.744,0,0,1,.244,1.024m.032-4.955c-.081.357-.309.471-.812.439-.5-.016-2,.065-2.372.081a10.452,10.452,0,0,1-1.495.13c-.439-.065-.585-.26-.585-.439s-.13-.812.195-1.1c.325-.309.894.032,1.17.081a3.591,3.591,0,0,0,.6.032c.439,0,2.648-.065,2.957-.032.309.016.422.455.341.812m-4.988,1.868s1.316-.016,1.641-.032,2.128-.13,2.258-.13c.146,0,.065.065.552.162s.422.179.5.764-.244.585-.666.569a1.394,1.394,0,0,1-.715-.162,4.1,4.1,0,0,0-1.3-.016c-.5.016-1.657.1-2.1.162s-.487.081-.666-.162a1.044,1.044,0,0,1-.146-.812c.065-.26.422-.325.634-.341m22.55-.211c-.179-.552.162-.5.26-.52s.764,0,.975,0c.195,0,.829-.39.5-.877a25.426,25.426,0,0,0-2.291-2.908c-.6-.569-1.365-1.121-1.576-1.3-.195-.179-.341-.13-.926.195a8.529,8.529,0,0,0-2.128,1.787c-.146.146-.894,1.007-1.072,1.153s-.552.682-.666.764a.6.6,0,0,1-.715-.081A3.832,3.832,0,0,1,35,31.263a5.421,5.421,0,0,0-.991-1.641c-.5-.487-.91-.959-1.56-.959s-.747.227-1.17.585-1.17,1.218-1.478,1.495-.406.6-.764.634c-.357.016-.5,0-.634-.569-.114-.569-.162-1.007-.926-1.186a7.134,7.134,0,0,0-2.209-.13c-.227,0-3.574-.016-4.565-.114h-.439c-.731-.049-2.063-.422-2.258.715a22.449,22.449,0,0,0-.049,2.892,25.174,25.174,0,0,1-.422,4.045c-.374,1.787.829,2.339,1.592,2.291.747-.049.975-.211,2.161-.292a21.836,21.836,0,0,1,3.1-.081c.406.081.617.829-.081,1.137a23.853,23.853,0,0,1-3.623.617c-1.056.162-2,.195-2.453.7a1.019,1.019,0,0,0,.569,1.592,6.115,6.115,0,0,0,2.112-.52c.536-.195,2.486-.422,3.753-.731,1.267-.292,2.534-.439,2.908-2.453,0,0,.081-1.218.292-1.4a4.029,4.029,0,0,1,1.462-.406c.211,0,.406,0,.406.325a1.567,1.567,0,0,1-.374,1.056.9.9,0,0,1-.276.52c-.227.162-.747.309-.634.812.13.5.65,1.17,1.2,1.121a2.185,2.185,0,0,0,1.267-.731c.146-.195-.065-.5-.227-.747a4.5,4.5,0,0,1-.536-1.088c-.016-.227-.146-.6-.016-.845a.827.827,0,0,1,.78-.6,14.293,14.293,0,0,1,2.4-.114.423.423,0,0,1,.357.6,7.912,7.912,0,0,1-.715,1.576c-.276.422-.569.975-.276,1.4a.949.949,0,0,0,1.365.341c.471-.39.569-.552.5-1.056a6.545,6.545,0,0,0-.26-1.381,1.991,1.991,0,0,1-.049-.91c0-.179.146-.309.39-.422.13-.065.439.032.585-.13a.645.645,0,0,1,.6-.341c.13,0,.276.276.5.276a3.621,3.621,0,0,1,.439.049,2.942,2.942,0,0,1,.374-.049c.439.032.52-.146.877-.195a8.516,8.516,0,0,1,.926-.032,19.776,19.776,0,0,1,2.063-.13,6.024,6.024,0,0,0,1.024.244,8.3,8.3,0,0,0,1.072.016,5.518,5.518,0,0,0,1.348.26c.26-.081.471-.195.325-.585a5.468,5.468,0,0,0-1.007-1.543,3.02,3.02,0,0,1-.731-1.2m1.836,5.1a7.3,7.3,0,0,0-1.235-.1,4.1,4.1,0,0,1-1.007-.195c-.341-.1-.861-.276-1.056-.357-.179-.081-.357-.179-.357-.179-.227-.195-.357-.422-.455-.146s.065.975-.065,1.43a5.963,5.963,0,0,0-.227,1.43,1.559,1.559,0,0,0,.422.975,2.187,2.187,0,0,0,2.567-.52A5.727,5.727,0,0,0,45.043,39.5c.081-.26.065-.357-.162-.422" transform="translate(-17.468 -25.754)" fill="#ff2300"/>
  </g>
</svg>
